HIERARCHY
ROOT pelvis
{
  OFFSET 0 100 0
  CHANNELS 6 Xposition Yposition Zposition Zrotation Xrotation Yrotation
  JOINT pelvis_right_femur
  {
    OFFSET -10.78128 -3.44521 -0.5502486
    CHANNELS 3 Zrotation Xrotation Yrotation
    JOINT right_femur_tibia
    {
      OFFSET -0.8047443 -44.0398 -0.1307829
      CHANNELS 3 Zrotation Xrotation Yrotation
      JOINT right_tibia_foot
      {
        OFFSET 3.006224 -47.83518 -5
        CHANNELS 3 Zrotation Xrotation Yrotation
        End Site
        {
          OFFSET 0 -5 15
        }
      }
    }
  }
  JOINT pelvis_left_femur
  {
    OFFSET 10.78128 -3.44521 -0.5502486
    CHANNELS 3 Zrotation Xrotation Yrotation
    JOINT left_femur_tibia
    {
      OFFSET 0.8047443 -44.0398 -0.1307829
      CHANNELS 3 Zrotation Xrotation Yrotation
      JOINT left_tibia_foot
      {
        OFFSET -4.370144 -48.10324 -4.275266
        CHANNELS 3 Zrotation Xrotation Yrotation
        End Site
        {
          OFFSET 0 -5 15
        }
      }
    }
  }
  JOINT pelvis_spine1
  {
    OFFSET 0 6.468898 -3.129235
    CHANNELS 3 Zrotation Xrotation Yrotation
    JOINT spine1
    {
      OFFSET 0 23.15396 4.99043
      CHANNELS 3 Zrotation Xrotation Yrotation
      JOINT spine2
      {
        OFFSET 0 20.79997 -5.064912
        CHANNELS 3 Zrotation Xrotation Yrotation
        JOINT neck
        {
          OFFSET 0 14.38658 9.616178
          CHANNELS 3 Zrotation Xrotation Yrotation
          End Site
          {
            OFFSET 0 20 0
          }
        }
      }
      JOINT right_manubrium
      {
        OFFSET -5.722621 16.35077 3.967754
        CHANNELS 3 Zrotation Xrotation Yrotation
        JOINT right_clavicle
        {
          OFFSET -13.16364 1.694482 -4.693211
          CHANNELS 3 Zrotation Xrotation Yrotation
          JOINT right_humerus
          {
            OFFSET -28.5034 -0.3100689 -2.792744
            CHANNELS 3 Zrotation Xrotation Yrotation
            JOINT right_radius
            {
              OFFSET -25.15693 0.02248979 -1.271978
              CHANNELS 3 Zrotation Xrotation Yrotation
              End Site
              {
                OFFSET -15 0 0
              }
            }
          }
        }
      }
      JOINT left_manubrium
      {
        OFFSET 5.722621 16.35077 3.967754
        CHANNELS 3 Zrotation Xrotation Yrotation
        JOINT left_clavicle
        {
          OFFSET 13.16364 1.694482 -4.693211
          CHANNELS 3 Zrotation Xrotation Yrotation
          JOINT left_humerus
          {
            OFFSET 29.39168 -1.063119 -2.237045
            CHANNELS 3 Zrotation Xrotation Yrotation
            JOINT left_radius
            {
              OFFSET 24.59957 -0.9528479 0.9047498
              CHANNELS 3 Zrotation Xrotation Yrotation
              End Site
              {
                OFFSET 15 -0 -0
              }
            }
          }
        }
      }
    }
  }
}
MOTION
Frames: 9
Frame Time: 0.0416666666667
0 103.5113 0 -1.870513 21.46949 3.983421 -12.68531 12.02698 52.81606 -180 78.2194 -180 67.147 -64.46784 27.47585 -18.2528 -32.48951 -44.29499 180 -88.08655 180 -2.392712 -17.01171 29.19445 -10.34584 -5.055961 11.26424 7.776399 -3.291254 -5.104247 3.217376 12.16725 8.455212 -6.536597 -37.84773 20.75077 23.87277 -26.97004 11.77051 33.23166 45.67912 31.52515 -0 0 54.29313 1.192406 29.2861 26.25777 -13.41874 9.180379 26.11166 -149.6718 46.62617 86.55089 -0 0 1.764218 -22.23773 -34.76897 80.752
2.800962 104.5854 -0.3740532 -2.3724 17.48422 6.818242 -7.223238 6.725576 42.93496 -0 88.36224 -0 42.58787 -56.8565 10.29528 -14.30306 -24.73257 -38.49609 0 -73.25783 0 0.5491442 -17.00479 28.80256 -9.022634 -4.666267 10.01001 6.788218 -0.724335 -5.707405 2.827118 13.90582 8.185645 -4.71355 -35.4585 18.71727 20.45199 -25.64415 11.5822 44.02753 46.30355 20.8291 -0 0 46.86406 -0.07407916 25.02389 22.14035 -8.349266 4.305228 19.99447 -133.4247 47.14795 69.72197 0 0 -1.315971 -21.38819 -21.94065 64.2711
3.368498 105.1073 1.455942 0.1073757 0.04716592 6.486143 4.039742 -22.53321 6.588648 -0 33.39783 -0 -6.706556 -12.35939 -1.855295 -6.412521 11.33901 -21.12006 -0 4.219526 -0 9.449176 -17.98316 24.81919 -3.309161 -2.812378 3.838307 2.801383 9.552358 -7.625606 1.467625 21.8649 6.805551 3.091044 -25.14887 9.631817 5.755241 -19.52583 11.54375 85.68282 34.416 -18.15062 -0 0 15.16092 -9.408245 8.726222 5.575138 6.307255 -20.05551 -1.82898 -92.10394 22.88347 19.50961 0 0 -15.24123 12.1636 16.77463 -0.7908679
2.406431 106.2134 5.363576 1.682162 -12.7666 4.886353 -1.626546 -45.57007 -22.51622 0 -5.919067 0 -37.04647 16.60872 12.23864 -7.742099 38.21779 -9.656445 -0 59.08841 -0 16.06521 -18.98977 22.33317 0.714452 -1.741014 -0.6926561 -0.02491131 17.01809 -8.527886 0.6020379 27.57071 5.918438 9.4629 -18.14404 2.619144 -4.435193 -15.04867 12.55987 106.095 18.38809 -33.90596 0 0 -7.895356 -19.38401 -0.3014975 -7.190734 11.96388 -40.21534 -15.48695 -88.09059 -6.320386 -1.444304 0 0 -25.41168 52.64036 9.867068 -55.7463
-0.06996925 108.4269 10.86945 1.793079 -23.86544 1.736434 -25.77203 -60.29294 -63.29683 0 -40.30111 0 -73.0915 30.4443 37.64127 -18.09618 60.71711 6.969216 -180 73.81244 -180 22.18885 -19.91279 21.0294 4.112063 -1.162115 -4.428795 -2.520873 23.50417 -8.964908 -0.09681208 32.30964 5.329219 15.60794 -12.71926 -3.764168 -12.93127 -11.2922 14.11646 120.3105 3.183056 -41.87115 0 0 -27.92807 -29.62246 -5.470159 -19.24207 12.55719 -58.36849 -28.83093 -99.59085 -30.71358 -22.5544 0 0 -34.31204 74.47011 -18.90979 -92.51247
-3.928602 111.9644 17.309 -0.1384007 -31.79732 -3.055352 -55.45766 -61.48517 -103.7487 0 -64.86625 0 -101.7093 30.13702 59.25009 -47.12145 73.75203 39.94014 -180 42.18309 -180 25.91217 -20.90552 20.08605 6.438269 -0.8546128 -7.091491 -4.41896 27.91672 -9.004341 -0.5804854 35.5119 5.063479 20.23356 -9.059517 -8.491481 -18.92788 -8.53101 15.56016 129.7215 -8.023745 -44.97435 0 0 -42.4724 -37.75596 -7.132008 -27.65084 6.351097 -70.89661 -43.9279 -119.3357 -42.32361 -46.19421 0 0 -41.39219 79.55829 -43.43703 -115.8382
-8.514988 116.4815 23.98582 -2.987669 -32.93527 -8.40647 -59.55603 -60.60931 -109.2871 0 -69.95514 0 -104.9825 31.17672 62.20918 -58.82008 75.0384 53.18712 -180 40.1068 -180 24.11608 -22.05135 18.58126 6.775701 -0.6026399 -7.74239 -4.779311 28.0042 -8.925681 -0.6083047 35.73514 5.129743 20.7689 -7.878256 -9.212832 -20.10128 -7.267054 15.77682 131.0527 -10.61434 -44.92264 0 0 -45.72493 -39.47557 -6.452095 -27.7841 5.271372 -72.45409 -46.16843 -122.4376 -42.67481 -51.68131 0 0 -44.39853 78.95335 -45.08778 -117.5948
-12.93601 120.9794 30.69398 -4.138555 -26.95677 -12.1156 -37.03666 -61.29825 -78.35043 0 -53.94223 0 -79.86728 36.41928 43.61626 -29.96898 68.16065 23.53563 -180 67.84768 -180 16.46721 -22.7734 16.19122 5.052742 -0.3339622 -6.261884 -3.396824 23.4717 -8.816396 -0.07298622 32.92913 5.381228 16.71517 -9.250192 -5.518886 -16.07773 -7.522886 14.42667 123.6112 -3.952895 -42.37877 0 0 -36.70569 -34.23822 -3.928307 -19.47211 12.91638 -62.28092 -31.53826 -103.705 -34.18286 -34.76276 0 0 -42.31666 74.20072 -22.52325 -95.44921
-16.75501 124.5267 37.52289 -3.542922 -18.66133 -13.862 -11.02502 -53.00773 -39.58969 0 -29.05952 0 -43.90065 30.04428 16.01634 -12.59451 53.15734 4.012344 -0 75.80163 -0 6.871429 -22.25738 13.73141 2.57725 -0.1245453 -3.928655 -1.395052 17.22906 -8.468278 0.7889285 29.23231 5.536241 11.07141 -11.93488 -0.3418645 -9.965641 -8.508054 12.53447 112.6951 6.353565 -37.15527 0 0 -22.72096 -26.8235 0.4799584 -8.817928 13.79404 -46.93011 -19.73943 -87.58395 -15.21642 -18.06487 0 0 -37.19533 56.20191 4.233016 -63.5884
